<?xml version="1.0" encoding="UTF-8" standalone="no"?>
<svg width="25px" height="25px" viewBox="0 0 25 25" version="1.1" xmlns="http://www.w3.org/2000/svg" xmlns:xlink="http://www.w3.org/1999/xlink">
    <!-- Generator: Sketch 39.1 (31720) - http://www.bohemiancoding.com/sketch -->
    <title>Google-color</title>
    <desc>Created with Sketch.</desc>
    <defs>
        <filter x="-50%" y="-50%" width="200%" height="200%" filterUnits="objectBoundingBox" id="filter-1">
            <feOffset dx="1" dy="1" in="SourceAlpha" result="shadowOffsetOuter1"></feOffset>
            <feGaussianBlur stdDeviation="1.5" in="shadowOffsetOuter1" result="shadowBlurOuter1"></feGaussianBlur>
            <feColorMatrix values="0 0 0 0 0   0 0 0 0 0   0 0 0 0 0  0 0 0 0.5 0" type="matrix" in="shadowBlurOuter1" result="shadowMatrixOuter1"></feColorMatrix>
            <feMerge>
                <feMergeNode in="shadowMatrixOuter1"></feMergeNode>
                <feMergeNode in="SourceGraphic"></feMergeNode>
            </feMerge>
        </filter>
    </defs>
    <g id="App" stroke="none" stroke-width="1" fill="none" fill-rule="evenodd">
        <g id="Welcome-1" transform="translate(-254.000000, -295.000000)" fill="#000000">
            <g id="Google-Sign-up" filter="url(#filter-1)" transform="translate(60.000000, 287.000000)">
                <g id="Group-2" transform="translate(41.000000, 9.000000)">
                    <g id="Google" transform="translate(155.763780, 1.000000)">
                        <path d="M4.04951682,7.75410526 L1.00868289,5.37010526 C0.416040623,6.60547368 0.0821403006,7.99747368 0.0821403006,9.47368421 C0.0821403006,10.9486316 0.415629921,12.3397895 1.00745079,13.5743158 L4.04664191,11.1856842 C3.87455798,10.6471579 3.77845383,10.0724211 3.77845383,9.47368421 C3.77845383,8.872 3.87579009,8.29515789 4.04951682,7.75410526 Z" id="Fill-1"></path>
                        <path d="M9.11757337,4 C10.390748,4 11.5407122,4.46315789 12.4442555,5.22105263 L15.0727452,2.52631579 C13.4710093,1.09473684 11.4175018,0.210526316 9.11757337,0.210526316 C5.5469345,0.210526316 2.47817287,2.30694737 1.00868289,5.37010526 L4.04951682,7.75410526 C4.75017359,5.57052632 6.747415,4 9.11757337,4" id="Fill-2"></path>
                        <path d="M9.11757337,14.9473684 C6.747415,14.9473684 4.75017359,13.3768421 4.04951682,11.1932632 L1.00868289,13.5768421 C2.47817287,16.6404211 5.5469345,18.7368421 9.11757337,18.7368421 C11.3213976,18.7368421 13.4254214,17.9334737 15.0045687,16.4282105 L12.1181586,14.1372632 C11.3037375,14.664 10.2782158,14.9473684 9.11757337,14.9473684" id="Fill-3"></path>
                        <path d="M17.7423049,9.47368421 C17.7423049,8.92631579 17.6601646,8.33684211 17.5369542,7.78947368 L9.11757337,7.78947368 L9.11757337,11.3684211 L13.9638511,11.3684211 C13.7215372,12.5886316 13.0619506,13.5267368 12.1181586,14.1372632 L15.0045687,16.4282105 C16.6633921,14.8475789 17.7423049,12.4930526 17.7423049,9.47368421" id="Fill-4"></path>
                    </g>
                </g>
            </g>
        </g>
    </g>
</svg>